<svg xmlns="http://www.w3.org/2000/svg" viewBox="0 0 418.73 535.61"><defs><style>.cls-1{opacity:0.26;}.cls-2{fill:#a7a7aa;}.cls-3{fill:#fff;}.cls-4{fill:#868687;}.cls-5{fill:#444;}.cls-6{fill:#3dad93;}.cls-7{fill:#6b3212;}.cls-8{fill:#93a3df;}.cls-9{fill:#e8bba6;}.cls-10{fill:#e0e0e0;}.cls-11{fill:#ffcb40;}.cls-12{fill:#d3be9c;}.cls-13,.cls-16{fill:none;stroke-miterlimit:10;}.cls-13{stroke:#3dad93;}.cls-14{fill:#36324f;}.cls-15{fill:#ff7881;}.cls-16{stroke:#444;stroke-width:4px;}.cls-17{fill:#697d91;}.cls-18{fill:#b27f42;}</style></defs><title>Illustration 1</title><g id="Layer_2" data-name="Layer 2"><g id="Layer_2-2" data-name="Layer 2"><g class="cls-1"><rect class="cls-2" x="99.68" width="319.05" height="535.61" rx="12" ry="12"/><rect class="cls-3" x="123.98" y="56.83" width="270.58" height="417.63" rx="12" ry="12"/><ellipse class="cls-4" cx="259.21" cy="26.69" rx="28.29" ry="3.08"/><circle class="cls-4" cx="262.93" cy="504.4" r="12.25"/></g><path class="cls-5" d="M129.37,464.24s13.15-10.36,16.87-3.61-5.12,14.66-5.12,14.66S127.39,483,123.9,471.1,129.37,464.24,129.37,464.24Z"/><path class="cls-5" d="M75.94,467.64s-.9,21.84-18.58,10.09,3-11.75,3-11.75l10.06-1.48Z"/><path class="cls-6" d="M20.29,142.12s4.25,22.88,13.3,21.81C33.59,163.93,37.52,143.35,20.29,142.12Z"/><path class="cls-6" d="M31.58,144.66c-8.9-8.6,2.4-25.51,2.4-25.51s9.83,3.92,5,16S31.58,144.66,31.58,144.66Z"/><path class="cls-6" d="M63.89,132s-6,34.68-28.38,14C35.51,146,53.63,130.55,63.89,132Z"/><path class="cls-6" d="M37.54,152.6s3,12,12.16,11.37C49.7,164,53.57,152.12,37.54,152.6Z"/><polygon class="cls-7" points="23.96 166.81 50.82 165.59 46.55 197.49 32.35 197.49 23.96 166.81"/><polygon class="cls-8" points="204.48 124.41 198.75 192.87 236.2 178.32 232.86 103.41 204.48 124.41"/><polygon class="cls-8" points="186.82 127.51 183.01 195.01 198.75 192.87 204.48 124.41 186.82 127.51"/><polygon class="cls-9" points="217.48 100.55 186.82 127.51 204.48 124.41 232.86 103.41 217.48 100.55"/><path class="cls-10" d="M212.33,98.05c-43.77,11.16-45,18.66-42.36,21.92a7,7,0,0,0,2.49,1.85H183l34.47-21.27Z"/><polyline class="cls-11" points="165.69 192.87 169.97 119.97 183.01 121.82 179.53 181.54"/><ellipse class="cls-12" cx="174.94" cy="190.6" rx="8.88" ry="4.52" transform="translate(-56.71 305.79) rotate(-73.89)"/><ellipse class="cls-12" cx="35.08" cy="323.93" rx="6.91" ry="5.61"/><path class="cls-6" d="M318.61,203.76S329,229,341.41,224.58c0,0,3.74-15.9-8.21-18.75S318.61,203.76,318.61,203.76Z"/><path class="cls-6" d="M356.84,228.71s-19.73,14-11.76,22S356.84,228.71,356.84,228.71Z"/><polyline class="cls-13" points="341.97 218.15 343.85 250.09 341.97 273.67"/><polygon class="cls-7" points="321.03 270.75 352.93 274.55 349.55 303.83 330.29 303.83 321.03 270.75"/><polygon class="cls-14" points="247.49 252.06 249.65 303.83 268.69 303.83 266.89 252.06 247.49 252.06"/><polygon class="cls-15" points="268.69 245.69 268.69 303.83 286.29 303.83 281.98 248.92 268.69 245.69"/><path class="cls-9" d="M282.34,245.69l4,58.14h13.3l-1.8-55.63S297.79,239.32,282.34,245.69Z"/><path class="cls-5" d="M282.73,255.39s6.29,3.57,15.29,0l.19,5.77s-9.49,3.16-14.82,0Z"/><line class="cls-16" x1="8.31" y1="203.56" x2="81.43" y2="203.56"/><line class="cls-16" x1="110.38" y1="203.44" x2="173.33" y2="199.86"/><line class="cls-16" x1="172.48" y1="199.86" x2="373.24" y2="198.21"/><line class="cls-16" x1="0.07" y1="307.87" x2="42.68" y2="309.28"/><line class="cls-16" x1="50.82" y1="309.28" x2="56.37" y2="309.28"/><line class="cls-16" x1="131.4" y1="308.58" x2="370.73" y2="303.83"/><path class="cls-15" d="M48.58,346.68s30,103.68,21.86,117.82l5.5,3.14L95.06,383l28.55,84.6,5.76-3.4L133,356.91Z"/><path class="cls-17" d="M125.49,245.57s-2.75,18.52-22,18.76-24.88-12.18-24.88-12.18S55.92,272.89,52.11,289.4L38,319.17,42,323,58.6,294.62s-7.48,51.78-10,52.06,46.42,13.54,95,9.45l-19.19-75.2s6.64-11.86,13.41-15.45,31-52.56,34.71-66.24l-1.38-2.52s-31.47,45-45.59,48.85"/><path class="cls-18" d="M113,217.5s13-23.67-15.09-29.9-16.61,34.89-16.61,34.89S91,238.44,77.68,252.4c0,0-.51,21.93,27.35,13.46s19.17-27.67,19.17-27.67S124,234,113,217.5Z"/></g></g></svg>